<?xml version="1.0" encoding="UTF-8"?>
<svg width="800" height="450" viewBox="0 0 800 450" xmlns="http://www.w3.org/2000/svg">
  <!-- Food truck interior background -->
  <rect width="800" height="450" fill="#1a1a1a"/>
  
  <!-- Kitchen lighting gradient -->
  <defs>
    <linearGradient id="kitchenLight" x1="0%" y1="0%" x2="0%" y2="100%">
      <stop offset="0%" style="stop-color:#ffa500;stop-opacity:0.4" />
      <stop offset="100%" style="stop-color:#ff4500;stop-opacity:0.2" />
    </linearGradient>
    <filter id="steam">
      <feTurbulence type="fractalNoise" baseFrequency="0.02" numOctaves="2" result="turbulence"/>
      <feComposite in="turbulence" in2="SourceGraphic" operator="in" result="composite"/>
      <feColorMatrix in="composite" type="matrix" values="0 0 0 0 1
                                                           0 0 0 0 1
                                                           0 0 0 0 1
                                                           0 0 0 0.3 0"/>
    </filter>
  </defs>
  
  <rect width="800" height="450" fill="url(#kitchenLight)"/>
  
  <!-- Stove/cooking surface -->
  <rect x="200" y="250" width="400" height="200" fill="#2a2a2a"/>
  <rect x="210" y="260" width="380" height="180" fill="#3a3a3a"/>
  
  <!-- Pan -->
  <ellipse cx="400" cy="300" rx="150" ry="75" fill="#1a1a1a"/>
  <ellipse cx="400" cy="295" rx="145" ry="70" fill="#2a2a2a"/>
  <ellipse cx="400" cy="290" rx="140" ry="65" fill="#3a3a3a"/>
  
  <!-- Pasta in pan -->
  <g transform="translate(400, 290)">
    <!-- Spaghetti strands -->
    <path d="M-60,0 Q-30,-20 0,0 Q30,20 60,0" stroke="#f5deb3" stroke-width="3" fill="none"/>
    <path d="M-50,10 Q-25,-10 0,10 Q25,30 50,10" stroke="#f5deb3" stroke-width="3" fill="none"/>
    <path d="M-40,-10 Q-20,10 0,-10 Q20,-30 40,-10" stroke="#f5deb3" stroke-width="3" fill="none"/>
    <path d="M-55,5 Q-27,-15 0,5 Q27,25 55,5" stroke="#f5deb3" stroke-width="3" fill="none"/>
    
    <!-- Garlic pieces -->
    <circle cx="-30" cy="0" r="5" fill="#fffacd"/>
    <circle cx="20" cy="-10" r="4" fill="#fffacd"/>
    <circle cx="0" cy="15" r="5" fill="#fffacd"/>
    <circle cx="35" cy="5" r="4" fill="#fffacd"/>
    <circle cx="-15" cy="-8" r="4" fill="#fffacd"/>
    
    <!-- Red pepper flakes -->
    <circle cx="-10" cy="5" r="2" fill="#dc143c"/>
    <circle cx="15" cy="-5" r="2" fill="#dc143c"/>
    <circle cx="-25" cy="-10" r="2" fill="#dc143c"/>
    <circle cx="30" cy="10" r="2" fill="#dc143c"/>
    
    <!-- Parsley -->
    <ellipse cx="10" cy="0" rx="8" ry="4" fill="#228b22" opacity="0.7"/>
    <ellipse cx="-20" cy="10" rx="6" ry="3" fill="#228b22" opacity="0.7"/>
  </g>
  
  <!-- Oil shimmer effect -->
  <ellipse cx="400" cy="290" rx="130" ry="55" fill="none" stroke="#ffd700" stroke-width="1" opacity="0.3">
    <animate attributeName="rx" values="130;135;130" dur="2s" repeatCount="indefinite"/>
    <animate attributeName="ry" values="55;60;55" dur="2s" repeatCount="indefinite"/>
  </ellipse>
  
  <!-- Steam wisps -->
  <g opacity="0.4">
    <path d="M350 280 Q355 250 350 220" stroke="#ffffff" stroke-width="3" fill="none" filter="url(#steam)">
      <animate attributeName="d" values="M350 280 Q355 250 350 220;M350 280 Q345 250 350 220;M350 280 Q355 250 350 220" dur="3s" repeatCount="indefinite"/>
    </path>
    <path d="M400 285 Q395 255 400 225" stroke="#ffffff" stroke-width="3" fill="none" filter="url(#steam)">
      <animate attributeName="d" values="M400 285 Q395 255 400 225;M400 285 Q405 255 400 225;M400 285 Q395 255 400 225" dur="2.5s" repeatCount="indefinite"/>
    </path>
    <path d="M450 280 Q445 250 450 220" stroke="#ffffff" stroke-width="3" fill="none" filter="url(#steam)">
      <animate attributeName="d" values="M450 280 Q445 250 450 220;M450 280 Q455 250 450 220;M450 280 Q445 250 450 220" dur="3.5s" repeatCount="indefinite"/>
    </path>
  </g>
  
  <!-- Title overlay -->
  <rect x="0" y="350" width="800" height="100" fill="#000000" opacity="0.7"/>
  
  <text x="400" y="390" font-family="Arial, sans-serif" font-size="32" font-weight="bold" text-anchor="middle" fill="#ffffff">
    CHEF
  </text>
  <text x="400" y="420" font-family="Arial, sans-serif" font-size="18" text-anchor="middle" fill="#ffa500">
    Pasta Aglio e Olio - 2014
  </text>
</svg>