<svg width="800" height="450" viewBox="0 0 800 450" xmlns="http://www.w3.org/2000/svg">
  <defs>
    <!-- Mystical gradient -->
    <radialGradient id="mysticalBg" cx="50%" cy="50%" r="50%">
      <stop offset="0%" style="stop-color:#4a148c;stop-opacity:0.8" />
      <stop offset="50%" style="stop-color:#6a1b9a;stop-opacity:0.9" />
      <stop offset="100%" style="stop-color:#311b92;stop-opacity:1" />
    </radialGradient>
    
    <!-- Glow effect -->
    <filter id="magicGlow">
      <feGaussianBlur stdDeviation="5" result="coloredBlur"/>
      <feMerge>
        <feMergeNode in="coloredBlur"/>
        <feMergeNode in="SourceGraphic"/>
      </feMerge>
    </filter>
    
    <!-- Sparkle -->
    <filter id="sparkle">
      <feGaussianBlur stdDeviation="2" result="coloredBlur"/>
      <feMerge>
        <feMergeNode in="coloredBlur"/>
        <feMergeNode in="SourceGraphic"/>
      </feMerge>
    </filter>
  </defs>
  
  <!-- Background -->
  <rect width="800" height="450" fill="url(#mysticalBg)"/>
  
  <!-- Magical mist -->
  <ellipse cx="200" cy="350" rx="150" ry="50" fill="#e1bee7" opacity="0.2" filter="url(#magicGlow)"/>
  <ellipse cx="600" cy="380" rx="180" ry="40" fill="#ce93d8" opacity="0.2" filter="url(#magicGlow)"/>
  
  <!-- Traditional Japanese table -->
  <rect x="100" y="280" width="600" height="120" fill="#8b4513" stroke="#654321" stroke-width="2"/>
  <rect x="100" y="275" width="600" height="10" fill="#a0522d"/>
  
  <!-- Large feast platter -->
  <ellipse cx="400" cy="250" rx="250" ry="80" fill="#2c2c2c" stroke="#1a1a1a" stroke-width="3"/>
  <ellipse cx="400" cy="245" rx="240" ry="75" fill="#3e3e3e"/>
  
  <!-- Roasted pig/boar -->
  <g transform="translate(400, 220)">
    <!-- Body -->
    <ellipse cx="0" cy="0" rx="120" ry="60" fill="#8b4513" filter="url(#magicGlow)"/>
    <ellipse cx="0" cy="-5" rx="115" ry="55" fill="#a0522d"/>
    
    <!-- Crispy skin texture -->
    <path d="M -100 0 Q -80 -20, -60 0 T -20 0 T 20 0 T 60 0 T 100 0" 
          fill="none" stroke="#654321" stroke-width="2" opacity="0.5"/>
    <path d="M -90 20 Q -70 0, -50 20 T -10 20 T 30 20 T 70 20 T 90 20" 
          fill="none" stroke="#654321" stroke-width="2" opacity="0.5"/>
    
    <!-- Head -->
    <ellipse cx="-100" cy="-10" rx="40" ry="35" fill="#8b4513"/>
    <ellipse cx="-100" cy="-15" rx="38" ry="32" fill="#a0522d"/>
    
    <!-- Apple in mouth -->
    <circle cx="-130" cy="-10" r="15" fill="#dc143c" filter="url(#sparkle)"/>
    <ellipse cx="-132" cy="-12" rx="12" ry="10" fill="#ff6347"/>
    
    <!-- Garnish -->
    <ellipse cx="-50" cy="-40" rx="15" ry="25" fill="#228b22" transform="rotate(-30 -50 -40)" opacity="0.8"/>
    <ellipse cx="0" cy="-45" rx="15" ry="25" fill="#2e7d32" transform="rotate(0 0 -45)" opacity="0.8"/>
    <ellipse cx="50" cy="-40" rx="15" ry="25" fill="#228b22" transform="rotate(30 50 -40)" opacity="0.8"/>
  </g>
  
  <!-- Side dishes -->
  <!-- Bowl 1 - Dumplings -->
  <g transform="translate(150, 240)">
    <ellipse cx="0" cy="20" rx="40" ry="15" fill="#8b0000" stroke="#5d0000" stroke-width="2"/>
    <ellipse cx="0" cy="15" rx="38" ry="13" fill="#dc143c"/>
    
    <!-- Dumplings -->
    <ellipse cx="-15" cy="5" rx="12" ry="8" fill="#f5deb3" filter="url(#sparkle)"/>
    <ellipse cx="0" cy="3" rx="12" ry="8" fill="#ffe4b5" filter="url(#sparkle)"/>
    <ellipse cx="15" cy="5" rx="12" ry="8" fill="#f5deb3" filter="url(#sparkle)"/>
    <ellipse cx="-8" cy="0" rx="12" ry="8" fill="#ffe4b5" filter="url(#sparkle)"/>
    <ellipse cx="8" cy="0" rx="12" ry="8" fill="#f5deb3" filter="url(#sparkle)"/>
  </g>
  
  <!-- Bowl 2 - Rice -->
  <g transform="translate(650, 240)">
    <ellipse cx="0" cy="20" rx="40" ry="15" fill="#1a1a1a" stroke="#000" stroke-width="2"/>
    <ellipse cx="0" cy="15" rx="38" ry="13" fill="#2d2d2d"/>
    
    <!-- Rice -->
    <ellipse cx="0" cy="5" rx="35" ry="20" fill="#fff" filter="url(#sparkle)"/>
    <ellipse cx="0" cy="3" rx="32" ry="18" fill="#f5f5f5"/>
    
    <!-- Steam -->
    <path d="M -10 0 Q -10 -10, -5 -20 Q 0 -30, 0 -40" fill="none" stroke="#fff" stroke-width="2" opacity="0.3"/>
    <path d="M 0 0 Q 0 -10, 5 -20 Q 10 -30, 10 -40" fill="none" stroke="#fff" stroke-width="2" opacity="0.3"/>
    <path d="M 10 0 Q 10 -10, 15 -20 Q 20 -30, 20 -40" fill="none" stroke="#fff" stroke-width="2" opacity="0.3"/>
  </g>
  
  <!-- Magical sparkles -->
  <g opacity="0.8">
    <circle cx="200" cy="150" r="2" fill="#ffd700" filter="url(#sparkle)">
      <animate attributeName="opacity" values="0;1;0" dur="2s" repeatCount="indefinite"/>
    </circle>
    <circle cx="350" cy="120" r="3" fill="#fff" filter="url(#sparkle)">
      <animate attributeName="opacity" values="0;1;0" dur="2.5s" repeatCount="indefinite"/>
    </circle>
    <circle cx="500" cy="140" r="2" fill="#ffd700" filter="url(#sparkle)">
      <animate attributeName="opacity" values="0;1;0" dur="1.8s" repeatCount="indefinite"/>
    </circle>
    <circle cx="600" cy="160" r="3" fill="#fff" filter="url(#sparkle)">
      <animate attributeName="opacity" values="0;1;0" dur="2.2s" repeatCount="indefinite"/>
    </circle>
    <circle cx="250" cy="180" r="2" fill="#ffd700" filter="url(#sparkle)">
      <animate attributeName="opacity" values="0;1;0" dur="1.5s" repeatCount="indefinite"/>
    </circle>
  </g>
  
  <!-- Japanese lanterns -->
  <g transform="translate(100, 50)">
    <ellipse cx="0" cy="0" rx="25" ry="35" fill="#dc143c" opacity="0.8" filter="url(#magicGlow)"/>
    <ellipse cx="0" cy="-30" rx="20" ry="5" fill="#8b0000"/>
    <ellipse cx="0" cy="30" rx="20" ry="5" fill="#8b0000"/>
    <line x1="0" y1="-35" x2="0" y2="-50" stroke="#333" stroke-width="2"/>
  </g>
  
  <g transform="translate(700, 50)">
    <ellipse cx="0" cy="0" rx="25" ry="35" fill="#ff6347" opacity="0.8" filter="url(#magicGlow)"/>
    <ellipse cx="0" cy="-30" rx="20" ry="5" fill="#dc143c"/>
    <ellipse cx="0" cy="30" rx="20" ry="5" fill="#dc143c"/>
    <line x1="0" y1="-35" x2="0" y2="-50" stroke="#333" stroke-width="2"/>
  </g>
  
  <!-- Movie title -->
  <text x="400" y="380" text-anchor="middle" font-family="Arial, sans-serif" font-size="36" fill="#ffd700" filter="url(#magicGlow)">SPIRITED AWAY</text>
  <text x="400" y="410" text-anchor="middle" font-family="Arial, sans-serif" font-size="18" fill="#fff" opacity="0.9">2001</text>
  
  <!-- Japanese characters -->
  <text x="400" y="435" text-anchor="middle" font-family="serif" font-size="14" fill="#ce93d8" opacity="0.8">千と千尋の神隠し</text>
</svg>